Coordinates
version=1
nRows=34
nColumns=38
inDegrees=no

Units are S.I. units (second, meters, Newtons, ...)
If the header above contains a line with 'inDegrees', this indicates whether rotational values are in degrees (yes) or radians (no).

endheader
time	pelvis_tilt	pelvis_list	pelvis_rotation	pelvis_tx	pelvis_ty	pelvis_tz	hip_flexion_r	hip_adduction_r	hip_rotation_r	knee_angle_r	ankle_angle_r	subtalar_angle_r	mtp_angle_r	hip_flexion_l	hip_adduction_l	hip_rotation_l	knee_angle_l	ankle_angle_l	subtalar_angle_l	mtp_angle_l	lumbar_extension	lumbar_bending	lumbar_rotation	arm_flex_r	arm_add_r	arm_rot_r	elbow_flex_r	pro_sup_r	wrist_flex_r	wrist_dev_r	arm_flex_l	arm_add_l	arm_rot_l	elbow_flex_l	pro_sup_l	wrist_flex_l	wrist_dev_l
55	-0.151627	1.02248	1.69672	0.621496	0.259447	0.775212	1.42819	-0.105831	0.139025	1.43547	0.0271939	0	0	1.30666	-0.0838498	-0.117507	1.46105	0.080378	0	0	-0.757171	-0.107718	0.0415211	0.979687	-0.757918	0.144405	1.37841	0.759736	0	0	1.24955	-0.363042	0.383298	1.16021	1.01519	0	0
55.01	-0.149564	1.0221	1.6948	0.621333	0.260338	0.777819	1.42201	-0.105262	0.137654	1.42686	0.0255128	0	0	1.30047	-0.0840336	-0.118356	1.45093	0.0788203	0	0	-0.760948	-0.11083	0.0554892	0.963424	-0.778207	0.128913	1.38593	0.761148	0	0	1.26055	-0.345037	0.392387	1.14187	1.03286	0	0
55.02	-0.14746	1.02238	1.693	0.621087	0.261194	0.780576	1.41485	-0.105134	0.136343	1.4174	0.0237416	0	0	1.2936	-0.0838277	-0.118919	1.44062	0.0770437	0	0	-0.765492	-0.112538	0.0698014	0.947608	-0.799584	0.114832	1.39424	0.757625	0	0	1.26934	-0.326536	0.398064	1.12307	1.0453	0	0
55.03	-0.145615	1.02369	1.69146	0.620799	0.262029	0.783547	1.40639	-0.105217	0.134965	1.40765	0.0214544	0	0	1.28553	-0.0835365	-0.119412	1.43011	0.0749454	0	0	-0.771147	-0.113221	0.0845064	0.931484	-0.822092	0.101514	1.40343	0.745372	0	0	1.27646	-0.307516	0.400852	1.10317	1.0528	0	0
55.04	-0.143564	1.02434	1.68993	0.620468	0.26286	0.786567	1.39863	-0.105616	0.13327	1.39788	0.0208257	0	0	1.27815	-0.0829283	-0.119554	1.41922	0.0729809	0	0	-0.774478	-0.111504	0.0935239	0.922434	-0.83453	0.0954682	1.40586	0.757587	0	0	1.2775	-0.297051	0.399549	1.08737	1.05371	0	0
55.05	-0.142246	1.03101	1.68844	0.620199	0.263752	0.790331	1.38409	-0.105715	0.130744	1.38759	0.0158945	0	0	1.26388	-0.0835409	-0.120344	1.40793	0.0702094	0	0	-0.786178	-0.110866	0.109092	0.906586	-0.858758	0.0816954	1.41603	0.700022	0	0	1.28583	-0.280036	0.40366	1.06396	1.05977	0	0
55.06	-0.14078	1.03803	1.68692	0.619892	0.264657	0.794236	1.36894	-0.106206	0.127697	1.37683	0.0128542	0	0	1.24911	-0.0840713	-0.12097	1.39616	0.0671874	0	0	-0.796147	-0.107975	0.117119	0.901846	-0.870761	0.0785822	1.41633	0.676984	0	0	1.28839	-0.274841	0.406059	1.04501	1.06375	0	0
55.07	-0.139488	1.04537	1.68554	0.61955	0.265521	0.798269	1.35316	-0.106585	0.124983	1.36547	0.0101313	0	0	1.23393	-0.0845692	-0.121911	1.38408	0.0640132	0	0	-0.805144	-0.103864	0.121112	0.903417	-0.876983	0.0825179	1.41164	0.661037	0	0	1.28796	-0.276401	0.408848	1.02743	1.06857	0	0
55.08	-0.138063	1.05327	1.68407	0.619187	0.266352	0.80243	1.33669	-0.106886	0.122223	1.35381	0.00765965	0	0	1.21815	-0.0850296	-0.122716	1.37177	0.060969	0	0	-0.813611	-0.0983643	0.12204	0.910416	-0.878645	0.0924932	1.40235	0.651176	0	0	1.28506	-0.283714	0.412927	1.01088	1.07301	0	0
55.09	-0.136438	1.06199	1.68232	0.618809	0.267189	0.806721	1.31923	-0.107148	0.119156	1.34192	0.00615907	0	0	1.20138	-0.0854149	-0.123112	1.35931	0.0582034	0	0	-0.82185	-0.0915373	0.120322	0.922798	-0.876901	0.109824	1.38817	0.652092	0	0	1.28032	-0.296978	0.419599	0.995285	1.07821	0	0
55.1	-0.135141	1.0772	1.68076	0.618386	0.268019	0.811711	1.29452	-0.107627	0.114861	1.32962	0.00224675	0	0	1.17739	-0.0863475	-0.123766	1.34643	0.0546985	0	0	-0.836193	-0.0821391	0.113215	0.950787	-0.87054	0.145411	1.36532	0.645077	0	0	1.27475	-0.321531	0.432383	0.98367	1.07247	0	0
55.11	-0.132531	1.09146	1.67815	0.617873	0.268691	0.816543	1.27094	-0.107951	0.110352	1.31723	-0.000742584	0	0	1.15505	-0.0871347	-0.123463	1.3339	0.0512132	0	0	-0.848218	-0.0717886	0.104455	0.97978	-0.860417	0.183335	1.33892	0.639985	0	0	1.26673	-0.349771	0.447523	0.973708	1.06833	0	0
55.12	-0.128793	1.11598	1.67403	0.617144	0.269101	0.822277	1.23644	-0.107956	0.103772	1.30431	-0.00427863	0	0	1.12241	-0.0891557	-0.122542	1.3221	0.0481653	0	0	-0.869809	-0.0575633	0.0922658	1.02501	-0.844871	0.238214	1.30308	0.630693	0	0	1.25719	-0.383953	0.462258	0.964953	1.05517	0	0
55.13	-0.124601	1.14505	1.6694	0.616322	0.269467	0.828478	1.19678	-0.108025	0.0961713	1.29081	-0.00797154	0	0	1.08452	-0.0920282	-0.122273	1.3099	0.0459877	0	0	-0.895365	-0.0417151	0.0786615	1.07481	-0.825958	0.299309	1.26225	0.618715	0	0	1.24519	-0.419546	0.475684	0.957123	1.03568	0	0
55.14	-0.121731	1.16145	1.66622	0.61577	0.270178	0.833611	1.17045	-0.108179	0.0912168	1.27731	-0.0111596	0	0	1.05898	-0.0938227	-0.123202	1.29651	0.0435448	0	0	-0.906739	-0.0314878	0.0676939	1.1016	-0.809271	0.340227	1.22669	0.610516	0	0	1.22972	-0.447182	0.488359	0.948889	1.02283	0	0
55.15	-0.120287	1.17264	1.66447	0.615414	0.271134	0.83838	1.14948	-0.108525	0.0874559	1.26384	-0.0147073	0	0	1.03806	-0.0952891	-0.125496	1.28194	0.0400818	0	0	-0.912309	-0.0245034	0.0574969	1.11765	-0.793789	0.372624	1.19277	0.602947	0	0	1.21238	-0.471471	0.501363	0.941978	1.00935	0	0
55.16	-0.11918	1.18068	1.66312	0.615097	0.272173	0.842875	1.13177	-0.108829	0.0844862	1.25033	-0.0183434	0	0	1.02012	-0.0961393	-0.127699	1.26681	0.0369228	0	0	-0.91427	-0.0195583	0.0494073	1.12478	-0.781163	0.397137	1.16132	0.595636	0	0	1.19441	-0.490972	0.514027	0.934645	0.997427	0	0
55.17	-0.118617	1.1881	1.66252	0.614786	0.273313	0.847348	1.11446	-0.109412	0.0815701	1.23661	-0.0223283	0	0	1.00225	-0.0966888	-0.130434	1.25084	0.0335463	0	0	-0.915344	-0.0156014	0.0418233	1.12815	-0.769839	0.419496	1.13004	0.587963	0	0	1.17626	-0.509024	0.528345	0.927915	0.983753	0	0
55.18	-0.1182	1.1953	1.66206	0.61453	0.274539	0.85184	1.09699	-0.109831	0.078654	1.22246	-0.0263141	0	0	0.984087	-0.09734	-0.133768	1.23397	0.0299271	0	0	-0.915968	-0.0125414	0.0351271	1.12829	-0.760018	0.440104	1.09924	0.580401	0	0	1.15852	-0.525909	0.545254	0.921777	0.968482	0	0
55.19	-0.117339	1.20248	1.66121	0.614329	0.275841	0.856342	1.07918	-0.109919	0.0758394	1.20788	-0.0303608	0	0	0.965701	-0.0982029	-0.137308	1.21668	0.02614	0	0	-0.916074	-0.00989524	0.0295764	1.12578	-0.751728	0.459869	1.06907	0.572612	0	0	1.14102	-0.541248	0.563851	0.915681	0.952867	0	0
55.2	-0.11599	1.20965	1.66006	0.614147	0.277206	0.860835	1.06118	-0.10983	0.0730148	1.19306	-0.0344084	0	0	0.947243	-0.0991902	-0.140989	1.19928	0.0219517	0	0	-0.915622	-0.00732251	0.0248394	1.12138	-0.744655	0.479712	1.03922	0.56511	0	0	1.12351	-0.555319	0.583697	0.909521	0.937022	0	0
55.21	-0.114158	1.21732	1.65872	0.613952	0.278599	0.865353	1.04257	-0.109712	0.0700453	1.1781	-0.0387581	0	0	0.928461	-0.100145	-0.144586	1.182	0.0167142	0	0	-0.915237	-0.00466445	0.0203065	1.11664	-0.738361	0.501756	1.00917	0.556559	0	0	1.10667	-0.569498	0.60679	0.903832	0.918882	0	0
55.22	-0.111747	1.22494	1.65723	0.613723	0.28002	0.869832	1.02414	-0.109824	0.0666169	1.16357	-0.0430206	0	0	0.910089	-0.100814	-0.147653	1.16516	0.0115778	0	0	-0.914234	-0.00227026	0.0169193	1.10925	-0.734017	0.523199	0.980699	0.546293	0	0	1.09084	-0.581478	0.631287	0.897178	0.90277	0	0
55.23	-0.109235	1.23267	1.65568	0.613508	0.281501	0.874343	1.00564	-0.109856	0.0631278	1.14921	-0.0475172	0	0	0.891601	-0.101435	-0.150397	1.14853	0.00668628	0	0	-0.912764	-8.14777e-05	0.0139554	1.10101	-0.73077	0.547493	0.953258	0.533621	0	0	1.07533	-0.59245	0.657067	0.890059	0.88688	0	0
55.24	-0.107759	1.24031	1.65514	0.613293	0.282974	0.878916	0.986911	-0.109734	0.0607232	1.13421	-0.0525884	0	0	0.872956	-0.10153	-0.153208	1.1313	0.000841205	0	0	-0.910583	0.00191073	0.0109144	1.09369	-0.728415	0.57736	0.925875	0.512539	0	0	1.06067	-0.602746	0.686394	0.881918	0.868223	0	0
55.25	-0.106992	1.24639	1.65552	0.613041	0.284439	0.883382	0.969868	-0.109972	0.0587077	1.11905	-0.0575413	0	0	0.855827	-0.101196	-0.156515	1.11347	-0.00534185	0	0	-0.906341	0.00362919	0.00796562	1.08548	-0.727006	0.609624	0.899705	0.484918	0	0	1.04631	-0.611913	0.717535	0.873337	0.85095	0	0
55.26	-0.107176	1.25205	1.65643	0.612896	0.285954	0.887799	0.953378	-0.110038	0.0570509	1.10401	-0.0633867	0	0	0.83872	-0.101775	-0.161793	1.09521	-0.0120925	0	0	-0.900914	0.00465773	0.00519208	1.07844	-0.726647	0.649411	0.874092	0.445177	0	0	1.03342	-0.621209	0.754658	0.864269	0.828136	0	0
55.27	-0.108494	1.25681	1.65778	0.612894	0.287578	0.892127	0.937839	-0.109799	0.0560437	1.08906	-0.0689595	0	0	0.821875	-0.102927	-0.168654	1.07614	-0.0192021	0	0	-0.893975	0.00460304	0.00275504	1.07064	-0.726303	0.692393	0.849564	0.406281	0	0	1.02159	-0.630318	0.796176	0.855029	0.804436	0	0
55.28	-0.109273	1.26138	1.65918	0.612756	0.289253	0.896496	0.922024	-0.110359	0.0537439	1.07339	-0.074207	0	0	0.804996	-0.103236	-0.174646	1.05639	-0.0267639	0	0	-0.88647	0.00557287	0.000237202	1.06289	-0.725912	0.737661	0.8265	0.366675	0	0	1.01223	-0.639874	0.846364	0.846075	0.77403	0	0
55.29	-0.109847	1.26541	1.66075	0.61253	0.290921	0.900835	0.906352	-0.111051	0.0514334	1.05687	-0.0790197	0	0	0.788632	-0.102778	-0.179822	1.03616	-0.0339829	0	0	-0.878096	0.00743158	-0.00236988	1.05307	-0.724921	0.779427	0.806033	0.330501	0	0	1.00542	-0.649738	0.905481	0.837938	0.737669	0	0
55.3	-0.110334	1.26977	1.66246	0.612318	0.292623	0.905165	0.890317	-0.111852	0.0486913	1.0406	-0.0839044	0	0	0.771784	-0.102205	-0.184776	1.01576	-0.0407178	0	0	-0.86969	0.00959143	-0.00492546	1.04114	-0.723568	0.817969	0.788094	0.29655	0	0	0.998462	-0.658528	0.965072	0.831255	0.699029	0	0
55.31	-0.110629	1.2744	1.66406	0.612124	0.294352	0.909501	0.873929	-0.112806	0.0452371	1.02435	-0.088857	0	0	0.754553	-0.102053	-0.190489	0.995169	-0.0478742	0	0	-0.861402	0.0117255	-0.00740608	1.02801	-0.722216	0.855158	0.772603	0.263341	0	0	0.989761	-0.665874	1.01973	0.826411	0.658001	0	0
55.32	-0.110977	1.27862	1.66574	0.611892	0.296045	0.913788	0.857717	-0.113939	0.0415863	1.00734	-0.0939048	0	0	0.737805	-0.101731	-0.196089	0.974328	-0.055811	0	0	-0.852407	0.0137891	-0.00994356	1.01437	-0.720894	0.891883	0.759136	0.232409	0	0	0.979603	-0.67188	1.07041	0.822742	0.617235	0	0
55.33	-0.11071	1.28197	1.66688	0.611698	0.297734	0.917962	0.842397	-0.114799	0.0382418	0.990202	-0.0987528	0	0	0.722258	-0.101698	-0.20174	0.9539	-0.064061	0	0	-0.842266	0.0158803	-0.0123538	0.998501	-0.718906	0.923626	0.747532	0.208377	0	0	0.966757	-0.676377	1.11368	0.819861	0.583444	0	0
